<svg width="28" height="28" viewBox="0 0 28 28" fill="none" xmlns="http://www.w3.org/2000/svg"><path opacity="0.4" d="M5.17808 9.64489L5.08764 9.20681L4.70078 8.98223L4.0625 8.61172V6.42272L13.8419 7.98744L13.9999 8.01272L14.1579 7.98744L23.9375 6.42272V7.71272L23.6308 8.63278L23.1148 9.11982L22.8855 9.33618L22.8218 9.64489L22.4146 11.617L21.6003 15.5611L20.0341 23.1478C20.0259 23.1544 20.0175 23.1613 20.0086 23.1683C19.8467 23.2969 19.5585 23.4938 19.1042 23.6998C18.1972 24.1111 16.604 24.5694 13.9999 24.5694C11.3958 24.5694 9.80271 24.1111 8.89567 23.6998C8.44139 23.4938 8.15314 23.2969 7.99125 23.1683C7.98241 23.1613 7.97393 23.1544 7.96581 23.1478L6.39951 15.5611L5.58523 11.617L5.17808 9.64489Z" stroke="#6D7986" stroke-width="2"></path><path d="M23.8103 5.15338C23.753 5.20306 23.6631 5.27003 23.5242 5.35212C23.0919 5.60763 22.3998 5.87241 21.457 6.10813C19.5866 6.57573 16.9496 6.8756 13.9999 6.8756C11.0501 6.8756 8.41321 6.57573 6.54281 6.10813C5.59992 5.87241 4.90782 5.60763 4.47553 5.35212C4.33663 5.27002 4.24681 5.20306 4.1895 5.15337C4.24681 5.10369 4.33663 5.03673 4.47552 4.95463C4.90782 4.69912 5.59992 4.43434 6.54281 4.19862C8.41321 3.73102 11.0501 3.43115 13.9999 3.43115C16.9496 3.43115 19.5866 3.73102 21.457 4.19862C22.3998 4.43434 23.0919 4.69912 23.5242 4.95463C23.6631 5.03672 23.753 5.1037 23.8103 5.15338Z" stroke="#6D7986" stroke-width="2"></path><path d="M14 19.7261C7.47078 19.7261 2.15973 14.3334 2.15973 7.70546C2.15973 7.32979 2.46462 7.0249 2.84028 7.0249C3.21595 7.0249 3.52084 7.32979 3.52084 7.70546C3.52084 13.5834 8.22212 18.365 14 18.365C19.7786 18.365 24.4792 13.5834 24.4792 7.70546C24.4792 7.32979 24.7834 7.0249 25.1598 7.0249C25.5361 7.0249 25.8403 7.32979 25.8403 7.70546C25.8403 14.3334 20.5293 19.7261 14 19.7261Z" fill="#6D7986"></path><path d="M19.0402 17.9643C19.0402 19.1573 16.7834 20.1244 14 20.1244C11.2165 20.1244 8.95978 19.1573 8.95978 17.9643C8.95978 16.7713 10.3998 17.9643 14 17.9643C17.6001 17.9643 19.0402 16.7713 19.0402 17.9643Z" fill="#6D7986"></path></svg>