<svg width="28" height="28" viewBox="0 0 28 28" fill="none" xmlns="http://www.w3.org/2000/svg"><path d="M3.7916 7.875L7.04873 23.6516C7.04873 23.6516 8.55548 25.5694 13.9999 25.5694C19.4444 25.5694 20.9511 23.6516 20.9511 23.6516L24.2083 7.875H3.7916Z" fill="#88C9F9"></path><path d="M3.11099 5.15234H24.8888V7.87457H3.11099V5.15234Z" fill="#3B88C3"></path><path d="M13.9999 10.5972C20.0136 10.5972 24.8888 9.39125 24.8888 7.9036C24.8888 6.41594 20.0136 5.20996 13.9999 5.20996C7.98611 5.20996 3.11099 6.41594 3.11099 7.9036C3.11099 9.39125 7.98611 10.5972 13.9999 10.5972Z" fill="#3B88C3"></path><path d="M13.9999 7.8756C20.0136 7.8756 24.8888 6.65682 24.8888 5.15337C24.8888 3.64993 20.0136 2.43115 13.9999 2.43115C7.98611 2.43115 3.11099 3.64993 3.11099 5.15337C3.11099 6.65682 7.98611 7.8756 13.9999 7.8756Z" fill="#55ACEE"></path><path d="M13.9999 7.19385C19.6378 7.19385 24.2083 6.1655 24.2083 4.89697C24.2083 3.62844 19.6378 2.6001 13.9999 2.6001C8.36202 2.6001 3.7916 3.62844 3.7916 4.89697C3.7916 6.1655 8.36202 7.19385 13.9999 7.19385Z" fill="#004A77"></path><path d="M14 19.7261C7.47078 19.7261 2.15973 14.3334 2.15973 7.70546C2.15973 7.32979 2.46462 7.0249 2.84028 7.0249C3.21595 7.0249 3.52084 7.32979 3.52084 7.70546C3.52084 13.5834 8.22212 18.365 14 18.365C19.7786 18.365 24.4792 13.5834 24.4792 7.70546C24.4792 7.32979 24.7834 7.0249 25.1598 7.0249C25.5361 7.0249 25.8403 7.32979 25.8403 7.70546C25.8403 14.3334 20.5293 19.7261 14 19.7261Z" fill="#99AAB5"></path><path d="M19.0402 17.9643C19.0402 19.1573 16.7834 20.1244 14 20.1244C11.2165 20.1244 8.95978 19.1573 8.95978 17.9643C8.95978 16.7713 10.3998 17.9643 14 17.9643C17.6001 17.9643 19.0402 16.7713 19.0402 17.9643Z" fill="#292F33"></path></svg>