<svg width="28" height="28" viewBox="0 0 28 28" fill="none" xmlns="http://www.w3.org/2000/svg"><path opacity="0.4" d="M5.97059 4.5H22.0294C22.8415 4.5 23.5 5.15849 23.5 5.97059V22.0294C23.5 22.8415 22.8415 23.5 22.0294 23.5H5.97059C5.15849 23.5 4.5 22.8415 4.5 22.0294V5.97059C4.5 5.15849 5.15849 4.5 5.97059 4.5Z" stroke="#6D7986" stroke-width="2"></path><path d="M5.65718 23.625C5.45184 23.625 5.2433 23.5762 5.05015 23.4716C4.42581 23.1361 4.19288 22.3577 4.52847 21.7334L9.02018 13.3919C9.21204 13.0344 9.5624 12.7893 9.96344 12.7303C10.3651 12.6713 10.7707 12.806 11.0575 13.0928L14.9563 16.9915L21.2049 5.06314C21.5334 4.4356 22.3092 4.19242 22.9368 4.52223C23.565 4.85076 23.8069 5.62652 23.4784 6.2547L16.42 19.7295C16.2307 20.0914 15.8803 20.341 15.4767 20.4032C15.0744 20.4616 14.6643 20.3307 14.3756 20.042L10.4614 16.1285L6.78845 22.95C6.5568 23.3805 6.11405 23.625 5.65718 23.625Z" fill="#6D7986"></path></svg>