<svg width="28" height="28" viewBox="0 0 28 28" fill="none" xmlns="http://www.w3.org/2000/svg"><g clip-path="url(#clip0)"><path opacity="0.4" d="M18.25 22.7501C18.25 23.0744 18.1447 23.1893 18.0188 23.2717C17.8281 23.3966 17.4692 23.5001 16.9167 23.5001H11.0833C10.5308 23.5001 10.1719 23.3966 9.98116 23.2717C9.85532 23.1893 9.75 23.0744 9.75 22.7501C9.75 22.607 9.80733 22.3302 9.97321 21.8268C10.0509 21.591 10.1425 21.333 10.2459 21.0425L10.2532 21.0219C10.3533 20.7405 10.4628 20.4328 10.5726 20.1073C10.9483 18.9933 11.3438 17.626 11.4636 16.0905C12.6512 15.9937 13.3268 15.9482 14 15.9482C14.6732 15.9482 15.3488 15.9937 16.5364 16.0905C16.6562 17.626 17.0517 18.9933 17.4274 20.1073C17.5372 20.4328 17.6467 20.7406 17.7468 21.0219L17.7541 21.0425C17.8575 21.333 17.9491 21.591 18.0268 21.8268C18.1927 22.3302 18.25 22.607 18.25 22.7501Z" stroke="#6D7986" stroke-width="2"></path><path d="M22.7951 10.403L22.8094 10.4381L22.8096 10.4383C23.252 11.5373 23.5 12.737 23.5 14C23.5 14.7363 22.903 15.3333 22.1667 15.3333H5.83333C5.09703 15.3333 4.5 14.7363 4.5 14C4.5 12.6639 4.77365 11.3986 5.26414 10.2515L5.26417 10.2514C5.86292 8.85082 6.78683 7.62604 7.94252 6.6714L7.94266 6.67129C9.58613 5.31325 11.6952 4.5 14 4.5C16.5547 4.5 18.866 5.50385 20.5725 7.14116L20.6878 7.25178C21.5882 8.14361 22.3095 9.21064 22.7951 10.403Z" stroke="#6D7986" stroke-width="2"></path></g><defs><clipPath id="clip0"><rect width="21" height="21" fill="white" transform="translate(3.5 3.5)"></rect></clipPath></defs></svg>