<svg width="28" height="28" viewBox="0 0 28 28" fill="none" xmlns="http://www.w3.org/2000/svg"><path d="M25.375 14.667C25.375 13.2621 25.1294 11.9151 24.6791 10.6689C24.3713 14.3407 22.4489 16.2267 20.4403 15.3484C18.5587 14.5253 19.8267 11.3168 19.9204 9.78585C20.0783 7.19058 19.9123 4.2199 15.2827 1.75C17.2064 5.49743 15.5055 7.8256 13.7216 7.96732C11.7424 8.12471 9.92976 6.23533 10.5989 3.16925C8.43227 4.79496 8.36937 7.53126 9.03782 9.30141C9.73504 11.1465 9.00972 12.6795 7.30949 12.8499C5.4092 13.0407 4.35333 10.7779 5.3269 7.17219C3.64206 9.19239 2.625 11.8088 2.625 14.667C2.625 21.0642 7.71765 26.25 14 26.25C20.2823 26.25 25.375 21.0642 25.375 14.667Z" fill="#F4900C"></path><path d="M20.8211 18.2066C20.9182 20.2736 19.1404 21.0839 18.1836 20.6925C16.8015 20.1275 17.1723 19.157 16.8166 17.1463C16.4609 15.1357 15.094 13.7396 13.0707 13.125C14.5473 17.3695 12.2524 18.9338 11.0495 19.2133C9.821 19.4988 8.58659 19.2126 8.4455 16.5277C7.01225 17.9848 6.125 20.0008 6.125 22.2287C6.125 22.4753 6.14009 22.7179 6.16109 22.9592C8.17578 24.9927 10.9432 26.25 14 26.25C17.0568 26.25 19.8242 24.9927 21.8389 22.9592C21.8599 22.7179 21.875 22.4753 21.875 22.2287C21.875 20.7629 21.4917 19.3896 20.8211 18.2066Z" fill="#FFCC4D"></path></svg>