<svg width="28" height="28" viewBox="0 0 28 28" fill="none" xmlns="http://www.w3.org/2000/svg"><path d="M20.0396 16.2646L20.0395 16.2646C19.2705 15.9282 18.821 15.3281 18.6017 14.6586C18.3961 14.0305 18.392 13.3479 18.4432 12.7476C18.4952 12.1383 18.6143 11.5174 18.7158 10.9946L18.7164 10.9916C18.8243 10.4356 18.9037 10.0261 18.9222 9.72511C18.9992 8.45894 18.9812 7.26856 18.4803 6.12091C18.2117 5.50533 17.7862 4.86379 17.1002 4.21951C17.1906 5.08755 17.0901 5.87756 16.8268 6.56742C16.2928 7.96623 15.1084 8.86027 13.8009 8.96418L20.0396 16.2646ZM20.0396 16.2646C21.4756 16.8925 22.9012 16.4921 23.9267 15.3992C24.0856 15.2299 24.2346 15.045 24.3736 14.8454M20.0396 16.2646L24.3736 14.8454M24.3736 14.8454C24.2801 20.6246 19.655 25.25 14 25.25C8.28694 25.25 3.625 20.5291 3.625 14.667C3.625 13.4965 3.8111 12.3712 4.15454 11.3197C4.19798 11.4832 4.24864 11.6408 4.30654 11.7921C4.55218 12.434 4.94191 12.9938 5.49406 13.374C6.05549 13.7605 6.71796 13.9143 7.40918 13.8449C8.56722 13.7289 9.49919 13.1202 9.97322 12.1385C10.4304 11.1917 10.39 10.0509 9.97334 8.94813L24.3736 14.8454ZM9.76263 6.24327C9.91184 6.65551 10.1135 7.03348 10.3625 7.3709C11.179 8.47726 12.4575 9.07098 13.8008 8.96418L9.76263 6.24327ZM9.76263 6.24327C9.56132 7.17556 9.67304 8.15277 9.97326 8.94793L9.76263 6.24327Z" stroke="#6D7986" stroke-width="2"></path><path opacity="0.4" d="M17.8052 21.6181C17.3514 21.4326 16.9611 21.1803 16.663 20.816C16.3654 20.4523 16.2213 20.0516 16.1387 19.6769C16.0651 19.3434 16.0296 18.9726 15.9968 18.6303C15.9947 18.6084 15.9926 18.5867 15.9905 18.5651C15.9539 18.1846 15.9134 17.7811 15.8319 17.3205C15.6633 16.3672 15.2163 15.5813 14.5181 14.9925C14.6401 16.2668 14.4063 17.3133 13.9359 18.1473C13.2359 19.3885 12.1016 19.9955 11.2759 20.1874L17.8052 21.6181ZM17.8052 21.6181C18.7484 22.0039 19.9258 21.7344 20.762 20.9483C20.8362 21.3631 20.875 21.7909 20.875 22.2287C20.875 22.321 20.8725 22.4143 20.8679 22.5093C19.0568 24.2133 16.6466 25.25 14 25.25C11.3534 25.25 8.94321 24.2133 7.13208 22.5093C7.12753 22.4143 7.125 22.321 7.125 22.2287C7.125 21.0007 7.43132 19.8481 7.96928 18.8447M17.8052 21.6181L7.96928 18.8447M7.96928 18.8447C8.16237 19.2186 8.41252 19.5313 8.72754 19.7751C9.56457 20.4232 10.5573 20.3543 11.2758 20.1874L7.96928 18.8447Z" stroke="#6D7986" stroke-width="2"></path></svg>