<svg width="28" height="28" viewBox="0 0 28 28" fill="none" xmlns="http://www.w3.org/2000/svg"><path d="M21.8203 4.375H6.17969C5.1829 4.375 4.375 5.1829 4.375 6.17969V21.8203C4.375 22.8171 5.1829 23.625 6.17969 23.625H21.8203C22.8171 23.625 23.625 22.8171 23.625 21.8203V6.17969C23.625 5.1829 22.8171 4.375 21.8203 4.375Z" fill="#CCD6DD"></path><path d="M22.0294 3.5H5.97059C4.60621 3.5 3.5 4.60621 3.5 5.97059V22.0294C3.5 23.3938 4.60621 24.5 5.97059 24.5H22.0294C23.3938 24.5 24.5 23.3938 24.5 22.0294V5.97059C24.5 4.60621 23.3938 3.5 22.0294 3.5ZM22.0294 4.73529C22.7107 4.73529 23.2647 5.28932 23.2647 5.97059V8.44118H19.5588V4.73529H22.0294ZM19.5588 14.6176H23.2647V18.3235H19.5588V14.6176ZM19.5588 13.3824V9.67647H23.2647V13.3824H19.5588ZM18.3235 4.73529V8.44118H14.6176V4.73529H18.3235ZM14.6176 9.67647H18.3235V13.3824H14.6176V9.67647ZM14.6176 14.6176H18.3235V18.3235H14.6176V14.6176ZM13.3824 4.73529V8.44118H9.67647V4.73529H13.3824ZM9.67647 9.67647H13.3824V13.3824H9.67647V9.67647ZM9.67647 14.6176H13.3824V18.3235H9.67647V14.6176ZM4.73529 5.97059C4.73529 5.28932 5.28932 4.73529 5.97059 4.73529H8.44118V8.44118H4.73529V5.97059ZM4.73529 9.67647H8.44118V13.3824H4.73529V9.67647ZM4.73529 14.6176H8.44118V18.3235H4.73529V14.6176ZM5.97059 23.2647C5.28932 23.2647 4.73529 22.7107 4.73529 22.0294V19.5588H8.44118V23.2647H5.97059ZM9.67647 23.2647V19.5588H13.3824V23.2647H9.67647ZM14.6176 23.2647V19.5588H18.3235V23.2647H14.6176ZM22.0294 23.2647H19.5588V19.5588H23.2647V22.0294C23.2647 22.7107 22.7107 23.2647 22.0294 23.2647Z" fill="#E1E8ED"></path><path d="M5.65718 23.625C5.45184 23.625 5.2433 23.5762 5.05015 23.4716C4.42581 23.1361 4.19288 22.3577 4.52847 21.7334L9.02018 13.3919C9.21204 13.0344 9.5624 12.7893 9.96344 12.7303C10.3651 12.6713 10.7707 12.806 11.0575 13.0928L14.9563 16.9915L21.2049 5.06314C21.5334 4.4356 22.3092 4.19242 22.9368 4.52223C23.565 4.85076 23.8069 5.62652 23.4784 6.2547L16.42 19.7295C16.2307 20.0914 15.8803 20.341 15.4767 20.4032C15.0744 20.4616 14.6643 20.3307 14.3756 20.042L10.4614 16.1285L6.78845 22.95C6.5568 23.3805 6.11405 23.625 5.65718 23.625Z" fill="#DD2E44"></path></svg>