<svg xmlns="http://www.w3.org/2000/svg" width="40" height="40"><path fill="#fff" fill-rule="evenodd" d="M36.25 10.6074c-1.1497.527-2.3854.8833-3.6823 1.0435 1.3236-.8202 2.3403-2.11882 2.819-3.66636-1.2389.75951-2.611 1.31094-4.0714 1.60809C30.1459 8.30472 28.4795 7.5 26.6355 7.5c-3.5406 0-6.4113 2.967-6.4113 6.6267 0 .5194.0567 1.0251.166 1.5103-5.3283-.2765-10.0525-2.9147-13.21464-6.92414-.55199.97882-.86812 2.11714-.86812 3.33174 0 2.2991 1.13192 4.3274 2.85226 5.5158-1.05106-.0345-2.03954-.3326-2.90401-.8289-.00059.0277-.00059.0553-.00059.0834 0 3.2107 2.2101 5.8888 5.143 6.498-.538.1513-1.1043.2324-1.68911.2324-.41314 0-.81473-.0416-1.2063-.1188.81591 2.6326 3.18361 4.5485 5.98921 4.6018-2.1943 1.7774-4.95866 2.837-7.96263 2.837-.51746 0-1.02772-.0315-1.52927-.0927 2.8373 1.8803 6.2073 2.9774 9.8279 2.9774 11.7928 0 18.2416-10.0978 18.2416-18.8549 0-.2873-.0063-.5731-.0187-.8573 1.2528-.9344 2.3397-2.1016 3.1992-3.4304z" clip-rule="evenodd"></path></svg>