<svg xmlns="http://www.w3.org/2000/svg" viewBox="0 0 333 267" fill="none"><path fill="#F1CC50" d="M333 180.197v-.406c0-.608-.611-1.318-1.629-1.318-2.443 0-4.377 3.955-6.922 5.07 1.119-2.737 5.09-5.881 5.09-9.126 0-1.217-.408-2.637-1.426-2.637-1.73 0-5.497 6.085-7.737 8.519 2.647-6.085.102-8.62-6.515-8.62-1.425 0-4.479.507-4.479 2.028 0 .304.101.507.203.609-1.527 1.521-2.647 7.199-3.054 9.532-5.294 5.273-15.271 6.591-28.2 3.853-21.887-4.766-40.925-17.847-48.356-29.103-1.324-1.927-2.138-3.651-2.444-4.766 0 0 0-.102-.101-.102.712-1.419 1.832-3.752 2.341-5.273v-.203c-4.174-13.486-7.33-52.7303-37.362-57.3949-2.749-.4056-4.785.1014-6.414 0-3.664-.2028-7.431-2.8394-8.755-5.8815-.916-2.1295-1.527-4.7661-1.934-7.8082 7.432-1.7239-24.229-5.0703-18.732-2.4337.204 4.0562.102 7.9096-.814 11.763-.611 2.4337-2.545 4.4618-5.192 5.1716-1.12.3042-2.953.3042-2.953.3042h-.101c-.509 0-1.324 0-3.462.3043-35.733 4.6646-33.086 49.0802-44.8951 61.3502-.1019.101-.1019.203-.1019.304.6109 2.839 2.036 5.679 3.665 8.113-12.9291 20.382-61.5913 40.562-76.6582 25.452-.3055-2.433-1.5271-8.011-3.0542-9.532.2037-.203.2037-.405.2037-.608 0-1.521-3.0542-2.028-4.4794-2.028-6.7191 0-9.16235 2.636-6.5155 8.619-2.23963-2.434-5.90457-8.518-7.73703-8.518-1.01804 0-1.42526 1.42-1.42526 2.637 0 3.346 3.97035 6.388 5.09019 9.126-2.44329-1.115-4.47936-5.07-6.92265-5.07-1.018042 0-1.628864.71-1.628864 1.318v.406c-.101804 1.318-.203608 3.853 3.766734 7.808 5.80282 5.78 27.28338 14.197 50.59648 13.183 21.0734-.913 40.7215-12.27 45.7099-15.82-.3054.507-.509 1.014-.6109 1.521-.3054 1.319 3.054 6.997 3.665 8.316-27.487 4.563-47.1352 61.248-2.8505 67.13 18.2225 2.434 40.8235-24.946 54.8725-35.188 2.545-1.825 4.479-3.143 5.599-3.447 36.547 22.309 65.867 51.209 89.485 35.289 12.929-8.721 31.865-46.85-29.624-64.697l-1.12-3.752c-2.138-2.637-7.025-5.476-13.846-5.476h-.814c-.509-8.011-.407-16.225.916-24.033 1.12 2.535 2.24 5.172 3.054 7.91 0 .101.204.304.407.203 2.546-.102 4.887-1.522 6.821-3.144.408.406.713.913 1.12 1.318 43.267 51.514 102.415 27.278 111.882 17.239 4.48-4.259 4.378-6.693 4.378-8.011zm-311.9266 3.448c-1.2217-.913-3.5632-2.637-4.3776-3.752 1.3235-1.014 3.3595-1.116 4.683-1.318-.2036 1.419-.3054 3.752-.3054 5.07zm94.2706-8.924c1.629 1.116 3.054 2.028 4.784 2.941.204.101.408 0 .509-.101 2.138-3.955 3.258-7.809 4.582-11.763 1.628 7.098 2.137 8.213.814 19.469-.204 1.42-.305 2.84-.509 4.259-3.36-1.419-7.737-3.143-11.198-3.549-5.396-.608-8.857-.304-11.097.609 4.479-3.651 8.755-7.809 12.115-11.865zm25.858 44.01c-7.126 6.693-20.259 26.67-37.871 28.292-11.6058 1.116-13.1329-27.176 22.804-38.939 2.952-.406 15.983 7.808 17.408 8.619l-2.341 2.028zm94.779 24.439c-9.468 4.462-22.702-2.333-51.105-23.425 44.386-16.428 63.525 17.543 51.105 23.425zm75.946-63.074c0-1.319-.102-3.752-.306-5.071 1.324.203 3.462.305 4.683 1.319-.814 1.115-3.258 2.839-4.377 3.752z"></path><path fill="#E9AD38" d="M230.178 158.699c-1.73 4.665-7.635 9.532-12.827 12.067-.407-.405-.713-.912-1.12-1.318-.916.811-1.832 1.42-2.85 1.927 0-.304 0-.507-.102-.811.814-.507 1.629-1.116 2.443-1.724 0-.102 0-.304.102-.304.102-.102.204-.102.305-.102 4.989-4.462 9.468-12.27 11.708-17.036.203.101.407.304.611.507-.306.608-.611 1.217-.917 1.927l.102.101c.611 1.521 1.425 3.144 2.545 4.766zM115.751 174.011v.913c-.102-.101-.204-.101-.306-.203-.61.71-1.221 1.42-1.934 2.13-6.617-2.434-11.3-6.592-14.1506-9.938 1.4256-1.622 2.6466-3.144 3.6646-4.766-.61-.913-1.119-1.825-1.628-2.738l.61-.304c.509.912 1.018 1.825 1.629 2.738l.102.101c3.054 4.563 7.432 8.822 12.013 12.067zM181.007 75.1413c-1.832 1.014-4.072 1.7239-5.497 2.0281.203 1.7239.509 3.5492 1.018 5.2731.305 1.014.916 2.7379 1.527 3.6506 0 0-4.378 6.7941-11.81 6.7941-6.108 0-9.976-6.4899-10.18-6.6927.102-.4057.204-.7099.306-1.2169.916-4.0562.509-10.1405.509-10.2419-.815-.4057-1.629-.8113-2.647-1.4197l1.018-.2028c7.737 4.4618 17.612 5.6787 25.756 1.3182v.7099zM169.198 133.652c-1.324-.811-25.451-22.106-26.571-22.816.916-19.4699.814-17.1376.916-18.4558 1.222-.2028 2.647-.4056 4.276-.507.509 0 1.527-.1015 2.036-.1015 1.324-.2028 2.443-.7098 3.563-1.521l-1.527 1.7239c-.102.1014-6.006 12.9794 17.307 41.6774z"></path><path fill="#E0E7F2" d="M126.746 213.965c-.611 0-1.222-.101-1.527-.608-.611-.913-.102-2.536.101-3.043 3.156-8.518 13.947-21.396 19.954-22.207 8.959 1.825-7.635 25.757-18.528 25.858z"></path><path fill="#C32A3E" d="M135.501 194.191c-3.971 4.056-7.737 9.532-9.468 13.994h-.102c-8.45-4.462-15.27-7.301-22.091-9.329-4.4796-1.319-13.4383-15.921 9.162-13.183 2.952.406 7.025 1.724 11.911 3.752.102.101.204.203.306.203h.101c3.054 1.217 6.516 2.738 10.181 4.563z"></path><path fill="#74A9F0" d="M229.975 148.356v.203c-.306.811-.713 1.926-1.426 3.346-.305.608-.61 1.217-.916 1.927l.102.101c0 .102.102.304.204.406-3.258 4.969-8.145 11.763-12.93 16.022-.509.405-1.018.71-1.527 1.014-1.323.71-2.646 1.115-3.97 1.217-.204 0-.305-.102-.407-.203-.815-2.738-1.934-5.375-3.054-7.91-.815 4.766-1.222 9.938-1.222 15.515 0 1.826 0 3.651.102 5.578 0 .507 0 .912.102 1.419 0 .507.101 1.014.101 1.521-9.264.406-19.749 4.868-28.403 9.025-1.934-1.622-6.719-5.475-7.94-3.346-.815 1.318-.611 2.839 0 4.36.305.812.712 1.623 1.119 2.333-2.646 1.217-4.988 2.839-10.384 4.664-4.683-2.23-10.384-4.867-14.659-6.895 1.12-2.13 1.73-4.056 1.73-5.577 0-2.029-1.018-3.245-2.85-3.55h-.102c-2.138.305-4.887 2.231-7.635 4.868-3.563-1.724-9.264-4.259-12.217-5.476.509.203 1.12.406 1.731.71.102-1.42.305-2.84.509-4.259.407-3.245.814-6.592.814-9.735 0-3.448-.814-6.49-1.527-9.431 0-.101-.101-.203-.101-.405-1.222 3.954-2.444 7.808-4.582 11.763 0 .101-.101.101-.203.202h-.306c-1.425-.811-2.952-1.723-4.479-2.839-.102-.101-.204-.101-.305-.203-4.683-3.752-9.774-8.822-13.133-13.791-.305-.507-.611-1.014-.814-1.521-.917-1.825-1.6293-3.549-2.0366-5.374 0-.102 0-.203.1018-.305 3.8688-3.954 6.1078-11.357 8.7548-19.875 5.6-17.949 12.624-40.258 39.297-41.8805-4.683 16.9345 21.684 41.6775 21.684 41.6775s17.205-17.442 17.205-40.4606c0-.2028-.102-1.1154-.204-2.2309h1.12c1.527-.1014 3.461-.3042 5.294 0 25.043 3.8534 31.457 31.9425 35.224 48.7755.712 3.347 1.425 6.288 2.138 8.62z"></path><path fill="#E0E7F2" d="M223.052 149.066c0 .101 0 .101 0 0h-.204.204z"></path><path fill="#E9AD38" d="M160.85 227.148c-1.222.405-3.156 1.622-5.599 3.448l-14.049-11.865 2.239-2.028 17.409 10.445zM188.235 210.517l-11.707 4.057-17.002-9.026c5.396-1.825 7.738-3.447 10.384-4.664-.407-.71-.814-1.521-1.119-2.333l7.838.812 11.606 11.154z"></path><path fill="#E9AD38" d="M176.528 214.574l16.39-2.333c8.144-1.115 15.78-4.563 22.091-9.735l5.803-4.766-12.623-2.332-31.661 19.166z"></path><path fill="#C32A3E" d="M221.729 196.118c0 4.664-17.205 7.402-33.494 14.399-2.545-4.056-7.432-9.329-11.707-13.081 9.366-4.563 20.157-9.329 30.032-9.329 7.33 0 12.013 3.042 14.049 5.577l.101.101c.713.913 1.019 1.724 1.019 2.333z"></path><path fill="#E0E7F2" d="M191.289 216.602c0 .608-.305.811-.712.811-1.018 0-3.258-.913-5.905-2.535 0 0-.407-.507-.611-.406-5.09-3.346-11.504-9.126-14.761-14.298-.102-.203-3.258-4.563-1.629-7.403.305-.405.814-.405 1.323-.202 2.749.709 6.821 4.461 6.821 4.461.102.102.102.203.204.203 6.922 5.78 15.27 15.819 15.27 19.369z"></path><path fill="#E9AD38" d="M196.074 43.9085c0 10.3433-3.461 19.5712-8.959 26.1625-5.09 5.9829-11.809 9.6335-19.342 9.6335-15.678 0-28.302-16.022-28.302-35.796 0-12.4729 5.09-23.526 12.827-29.9146 4.48-3.752 9.774-5.88147 15.576-5.88147 15.576 0 28.2 16.02207 28.2 35.79607z"></path><path fill="#F1CC50" d="M196.074 43.9085c0 10.3433-3.461 19.5712-8.959 26.1625-4.479 3.752-9.773 5.8815-15.576 5.8815-15.677 0-28.301-16.022-28.301-35.796 0-10.3433 3.461-19.5712 8.959-26.1626 4.479-3.752 9.773-5.88147 15.576-5.88147 15.677 0 28.301 16.02207 28.301 35.79607z"></path><path fill="#E9AD38" d="M142.22 50.6012h-2.545c-1.731 0-3.156-1.4196-3.156-3.1435v-.7099c0-1.7239 1.425-3.1435 3.156-3.1435h2.545v6.9969z"></path><path fill="#F1CC50" d="M192.307 50.6012h2.545c1.731 0 3.156-1.4196 3.156-3.1435v-.7099c0-1.7239-1.425-3.1435-3.156-3.1435h-2.545v6.9969z"></path><path fill="#684023" d="M152.298 13.3855s-2.036 14.8052 14.762 12.7771c16.798-2.0281 27.996 6.4899 29.319 17.2389 0 0 10.486-11.0532 3.156-24.5401-4.683-8.5181-31.864-34.5792-47.237-5.4759z"></path><path fill="#684023" d="M158.814 9.83632S147.921.000009 139.471 11.256c-10.791 14.2981.509 32.044.509 32.044s1.934-15.8192 8.552-17.1374c6.617-1.2169 19.444-8.5181 10.282-16.32628z"></path></svg>